<svg xmlns="http://www.w3.org/2000/svg" width="980" height="392" viewBox="0 0 980 392"><rect x="2" y="2" width="66" height="94" rx="8" fill="#f8f4ec" stroke="#000" stroke-opacity=".18"/><text x="8" y="29" fill="#1a1a1a" font-family="PingFang SC,Hiragino Sans GB,Noto Sans SC,sans-serif" font-size="22" font-weight="700">A</text><text x="42" y="89" fill="#1a1a1a" font-family="serif" font-size="26">♠</text><rect x="72" y="2" width="66" height="94" rx="8" fill="#f8f4ec" stroke="#000" stroke-opacity=".18"/><text x="78" y="29" fill="#1a1a1a" font-family="PingFang SC,Hiragino Sans GB,Noto Sans SC,sans-serif" font-size="22" font-weight="700">K</text><text x="112" y="89" fill="#1a1a1a" font-family="serif" font-size="26">♠</text><rect x="142" y="2" width="66" height="94" rx="8" fill="#f8f4ec" stroke="#000" stroke-opacity=".18"/><text x="148" y="29" fill="#1a1a1a" font-family="PingFang SC,Hiragino Sans GB,Noto Sans SC,sans-serif" font-size="22" font-weight="700">Q</text><text x="182" y="89" fill="#1a1a1a" font-family="serif" font-size="26">♠</text><rect x="212" y="2" width="66" height="94" rx="8" fill="#f8f4ec" stroke="#000" stroke-opacity=".18"/><text x="218" y="29" fill="#1a1a1a" font-family="PingFang SC,Hiragino Sans GB,Noto Sans SC,sans-serif" font-size="22" font-weight="700">J</text><text x="252" y="89" fill="#1a1a1a" font-family="serif" font-size="26">♠</text><rect x="282" y="2" width="66" height="94" rx="8" fill="#f8f4ec" stroke="#000" stroke-opacity=".18"/><text x="288" y="29" fill="#1a1a1a" font-family="PingFang SC,Hiragino Sans GB,Noto Sans SC,sans-serif" font-size="22" font-weight="700">10</text><text x="322" y="89" fill="#1a1a1a" font-family="serif" font-size="26">♠</text><rect x="352" y="2" width="66" height="94" rx="8" fill="#f8f4ec" stroke="#000" stroke-opacity=".18"/><text x="358" y="29" fill="#1a1a1a" font-family="PingFang SC,Hiragino Sans GB,Noto Sans SC,sans-serif" font-size="22" font-weight="700">9</text><text x="392" y="89" fill="#1a1a1a" font-family="serif" font-size="26">♠</text><rect x="422" y="2" width="66" height="94" rx="8" fill="#f8f4ec" stroke="#000" stroke-opacity=".18"/><text x="428" y="29" fill="#1a1a1a" font-family="PingFang SC,Hiragino Sans GB,Noto Sans SC,sans-serif" font-size="22" font-weight="700">8</text><text x="462" y="89" fill="#1a1a1a" font-family="serif" font-size="26">♠</text><rect x="492" y="2" width="66" height="94" rx="8" fill="#f8f4ec" stroke="#000" stroke-opacity=".18"/><text x="498" y="29" fill="#1a1a1a" font-family="PingFang SC,Hiragino Sans GB,Noto Sans SC,sans-serif" font-size="22" font-weight="700">7</text><text x="532" y="89" fill="#1a1a1a" font-family="serif" font-size="26">♠</text><rect x="562" y="2" width="66" height="94" rx="8" fill="#f8f4ec" stroke="#000" stroke-opacity=".18"/><text x="568" y="29" fill="#1a1a1a" font-family="PingFang SC,Hiragino Sans GB,Noto Sans SC,sans-serif" font-size="22" font-weight="700">6</text><text x="602" y="89" fill="#1a1a1a" font-family="serif" font-size="26">♠</text><rect x="632" y="2" width="66" height="94" rx="8" fill="#f8f4ec" stroke="#000" stroke-opacity=".18"/><text x="638" y="29" fill="#1a1a1a" font-family="PingFang SC,Hiragino Sans GB,Noto Sans SC,sans-serif" font-size="22" font-weight="700">5</text><text x="672" y="89" fill="#1a1a1a" font-family="serif" font-size="26">♠</text><rect x="702" y="2" width="66" height="94" rx="8" fill="#f8f4ec" stroke="#000" stroke-opacity=".18"/><text x="708" y="29" fill="#1a1a1a" font-family="PingFang SC,Hiragino Sans GB,Noto Sans SC,sans-serif" font-size="22" font-weight="700">4</text><text x="742" y="89" fill="#1a1a1a" font-family="serif" font-size="26">♠</text><rect x="772" y="2" width="66" height="94" rx="8" fill="#f8f4ec" stroke="#000" stroke-opacity=".18"/><text x="778" y="29" fill="#1a1a1a" font-family="PingFang SC,Hiragino Sans GB,Noto Sans SC,sans-serif" font-size="22" font-weight="700">3</text><text x="812" y="89" fill="#1a1a1a" font-family="serif" font-size="26">♠</text><rect x="842" y="2" width="66" height="94" rx="8" fill="#f8f4ec" stroke="#000" stroke-opacity=".18"/><text x="848" y="29" fill="#1a1a1a" font-family="PingFang SC,Hiragino Sans GB,Noto Sans SC,sans-serif" font-size="22" font-weight="700">2</text><text x="882" y="89" fill="#1a1a1a" font-family="serif" font-size="26">♠</text><rect x="912" y="2" width="66" height="94" rx="8" fill="#1e3a5f" stroke="#e2c078" stroke-width="2"/><path d="M 812 98 L 910 0" stroke="#5082be" stroke-opacity=".45" stroke-width="3"/><path d="M 824 98 L 922 0" stroke="#5082be" stroke-opacity=".45" stroke-width="3"/><path d="M 836 98 L 934 0" stroke="#5082be" stroke-opacity=".45" stroke-width="3"/><path d="M 848 98 L 946 0" stroke="#5082be" stroke-opacity=".45" stroke-width="3"/><path d="M 860 98 L 958 0" stroke="#5082be" stroke-opacity=".45" stroke-width="3"/><path d="M 872 98 L 970 0" stroke="#5082be" stroke-opacity=".45" stroke-width="3"/><path d="M 884 98 L 982 0" stroke="#5082be" stroke-opacity=".45" stroke-width="3"/><path d="M 896 98 L 994 0" stroke="#5082be" stroke-opacity=".45" stroke-width="3"/><path d="M 908 98 L 1006 0" stroke="#5082be" stroke-opacity=".45" stroke-width="3"/><path d="M 920 98 L 1018 0" stroke="#5082be" stroke-opacity=".45" stroke-width="3"/><path d="M 932 98 L 1030 0" stroke="#5082be" stroke-opacity=".45" stroke-width="3"/><path d="M 944 98 L 1042 0" stroke="#5082be" stroke-opacity=".45" stroke-width="3"/><path d="M 956 98 L 1054 0" stroke="#5082be" stroke-opacity=".45" stroke-width="3"/><path d="M 968 98 L 1066 0" stroke="#5082be" stroke-opacity=".45" stroke-width="3"/><path d="M 980 98 L 1078 0" stroke="#5082be" stroke-opacity=".45" stroke-width="3"/><path d="M 992 98 L 1090 0" stroke="#5082be" stroke-opacity=".45" stroke-width="3"/><path d="M 1004 98 L 1102 0" stroke="#5082be" stroke-opacity=".45" stroke-width="3"/><path d="M 1016 98 L 1114 0" stroke="#5082be" stroke-opacity=".45" stroke-width="3"/><path d="M 1028 98 L 1126 0" stroke="#5082be" stroke-opacity=".45" stroke-width="3"/><path d="M 1040 98 L 1138 0" stroke="#5082be" stroke-opacity=".45" stroke-width="3"/><path d="M 1052 98 L 1150 0" stroke="#5082be" stroke-opacity=".45" stroke-width="3"/><path d="M 1064 98 L 1162 0" stroke="#5082be" stroke-opacity=".45" stroke-width="3"/><path d="M 1076 98 L 1174 0" stroke="#5082be" stroke-opacity=".45" stroke-width="3"/><text x="945" y="61" text-anchor="middle" fill="#e2c078" fill-opacity=".35" font-family="serif" font-size="28">♠</text><rect x="2" y="100" width="66" height="94" rx="8" fill="#f8f4ec" stroke="#000" stroke-opacity=".18"/><text x="8" y="127" fill="#c0392b" font-family="PingFang SC,Hiragino Sans GB,Noto Sans SC,sans-serif" font-size="22" font-weight="700">A</text><text x="42" y="187" fill="#c0392b" font-family="serif" font-size="26">♥</text><rect x="72" y="100" width="66" height="94" rx="8" fill="#f8f4ec" stroke="#000" stroke-opacity=".18"/><text x="78" y="127" fill="#c0392b" font-family="PingFang SC,Hiragino Sans GB,Noto Sans SC,sans-serif" font-size="22" font-weight="700">K</text><text x="112" y="187" fill="#c0392b" font-family="serif" font-size="26">♥</text><rect x="142" y="100" width="66" height="94" rx="8" fill="#f8f4ec" stroke="#000" stroke-opacity=".18"/><text x="148" y="127" fill="#c0392b" font-family="PingFang SC,Hiragino Sans GB,Noto Sans SC,sans-serif" font-size="22" font-weight="700">Q</text><text x="182" y="187" fill="#c0392b" font-family="serif" font-size="26">♥</text><rect x="212" y="100" width="66" height="94" rx="8" fill="#f8f4ec" stroke="#000" stroke-opacity=".18"/><text x="218" y="127" fill="#c0392b" font-family="PingFang SC,Hiragino Sans GB,Noto Sans SC,sans-serif" font-size="22" font-weight="700">J</text><text x="252" y="187" fill="#c0392b" font-family="serif" font-size="26">♥</text><rect x="282" y="100" width="66" height="94" rx="8" fill="#f8f4ec" stroke="#000" stroke-opacity=".18"/><text x="288" y="127" fill="#c0392b" font-family="PingFang SC,Hiragino Sans GB,Noto Sans SC,sans-serif" font-size="22" font-weight="700">10</text><text x="322" y="187" fill="#c0392b" font-family="serif" font-size="26">♥</text><rect x="352" y="100" width="66" height="94" rx="8" fill="#f8f4ec" stroke="#000" stroke-opacity=".18"/><text x="358" y="127" fill="#c0392b" font-family="PingFang SC,Hiragino Sans GB,Noto Sans SC,sans-serif" font-size="22" font-weight="700">9</text><text x="392" y="187" fill="#c0392b" font-family="serif" font-size="26">♥</text><rect x="422" y="100" width="66" height="94" rx="8" fill="#f8f4ec" stroke="#000" stroke-opacity=".18"/><text x="428" y="127" fill="#c0392b" font-family="PingFang SC,Hiragino Sans GB,Noto Sans SC,sans-serif" font-size="22" font-weight="700">8</text><text x="462" y="187" fill="#c0392b" font-family="serif" font-size="26">♥</text><rect x="492" y="100" width="66" height="94" rx="8" fill="#f8f4ec" stroke="#000" stroke-opacity=".18"/><text x="498" y="127" fill="#c0392b" font-family="PingFang SC,Hiragino Sans GB,Noto Sans SC,sans-serif" font-size="22" font-weight="700">7</text><text x="532" y="187" fill="#c0392b" font-family="serif" font-size="26">♥</text><rect x="562" y="100" width="66" height="94" rx="8" fill="#f8f4ec" stroke="#000" stroke-opacity=".18"/><text x="568" y="127" fill="#c0392b" font-family="PingFang SC,Hiragino Sans GB,Noto Sans SC,sans-serif" font-size="22" font-weight="700">6</text><text x="602" y="187" fill="#c0392b" font-family="serif" font-size="26">♥</text><rect x="632" y="100" width="66" height="94" rx="8" fill="#f8f4ec" stroke="#000" stroke-opacity=".18"/><text x="638" y="127" fill="#c0392b" font-family="PingFang SC,Hiragino Sans GB,Noto Sans SC,sans-serif" font-size="22" font-weight="700">5</text><text x="672" y="187" fill="#c0392b" font-family="serif" font-size="26">♥</text><rect x="702" y="100" width="66" height="94" rx="8" fill="#f8f4ec" stroke="#000" stroke-opacity=".18"/><text x="708" y="127" fill="#c0392b" font-family="PingFang SC,Hiragino Sans GB,Noto Sans SC,sans-serif" font-size="22" font-weight="700">4</text><text x="742" y="187" fill="#c0392b" font-family="serif" font-size="26">♥</text><rect x="772" y="100" width="66" height="94" rx="8" fill="#f8f4ec" stroke="#000" stroke-opacity=".18"/><text x="778" y="127" fill="#c0392b" font-family="PingFang SC,Hiragino Sans GB,Noto Sans SC,sans-serif" font-size="22" font-weight="700">3</text><text x="812" y="187" fill="#c0392b" font-family="serif" font-size="26">♥</text><rect x="842" y="100" width="66" height="94" rx="8" fill="#f8f4ec" stroke="#000" stroke-opacity=".18"/><text x="848" y="127" fill="#c0392b" font-family="PingFang SC,Hiragino Sans GB,Noto Sans SC,sans-serif" font-size="22" font-weight="700">2</text><text x="882" y="187" fill="#c0392b" font-family="serif" font-size="26">♥</text><rect x="912" y="100" width="66" height="94" rx="8" fill="#1e3a5f" stroke="#e2c078" stroke-width="2"/><path d="M 812 196 L 910 98" stroke="#5082be" stroke-opacity=".45" stroke-width="3"/><path d="M 824 196 L 922 98" stroke="#5082be" stroke-opacity=".45" stroke-width="3"/><path d="M 836 196 L 934 98" stroke="#5082be" stroke-opacity=".45" stroke-width="3"/><path d="M 848 196 L 946 98" stroke="#5082be" stroke-opacity=".45" stroke-width="3"/><path d="M 860 196 L 958 98" stroke="#5082be" stroke-opacity=".45" stroke-width="3"/><path d="M 872 196 L 970 98" stroke="#5082be" stroke-opacity=".45" stroke-width="3"/><path d="M 884 196 L 982 98" stroke="#5082be" stroke-opacity=".45" stroke-width="3"/><path d="M 896 196 L 994 98" stroke="#5082be" stroke-opacity=".45" stroke-width="3"/><path d="M 908 196 L 1006 98" stroke="#5082be" stroke-opacity=".45" stroke-width="3"/><path d="M 920 196 L 1018 98" stroke="#5082be" stroke-opacity=".45" stroke-width="3"/><path d="M 932 196 L 1030 98" stroke="#5082be" stroke-opacity=".45" stroke-width="3"/><path d="M 944 196 L 1042 98" stroke="#5082be" stroke-opacity=".45" stroke-width="3"/><path d="M 956 196 L 1054 98" stroke="#5082be" stroke-opacity=".45" stroke-width="3"/><path d="M 968 196 L 1066 98" stroke="#5082be" stroke-opacity=".45" stroke-width="3"/><path d="M 980 196 L 1078 98" stroke="#5082be" stroke-opacity=".45" stroke-width="3"/><path d="M 992 196 L 1090 98" stroke="#5082be" stroke-opacity=".45" stroke-width="3"/><path d="M 1004 196 L 1102 98" stroke="#5082be" stroke-opacity=".45" stroke-width="3"/><path d="M 1016 196 L 1114 98" stroke="#5082be" stroke-opacity=".45" stroke-width="3"/><path d="M 1028 196 L 1126 98" stroke="#5082be" stroke-opacity=".45" stroke-width="3"/><path d="M 1040 196 L 1138 98" stroke="#5082be" stroke-opacity=".45" stroke-width="3"/><path d="M 1052 196 L 1150 98" stroke="#5082be" stroke-opacity=".45" stroke-width="3"/><path d="M 1064 196 L 1162 98" stroke="#5082be" stroke-opacity=".45" stroke-width="3"/><path d="M 1076 196 L 1174 98" stroke="#5082be" stroke-opacity=".45" stroke-width="3"/><text x="945" y="159" text-anchor="middle" fill="#e2c078" fill-opacity=".35" font-family="serif" font-size="28">♠</text><rect x="2" y="198" width="66" height="94" rx="8" fill="#f8f4ec" stroke="#000" stroke-opacity=".18"/><text x="8" y="225" fill="#c0392b" font-family="PingFang SC,Hiragino Sans GB,Noto Sans SC,sans-serif" font-size="22" font-weight="700">A</text><text x="42" y="285" fill="#c0392b" font-family="serif" font-size="26">♦</text><rect x="72" y="198" width="66" height="94" rx="8" fill="#f8f4ec" stroke="#000" stroke-opacity=".18"/><text x="78" y="225" fill="#c0392b" font-family="PingFang SC,Hiragino Sans GB,Noto Sans SC,sans-serif" font-size="22" font-weight="700">K</text><text x="112" y="285" fill="#c0392b" font-family="serif" font-size="26">♦</text><rect x="142" y="198" width="66" height="94" rx="8" fill="#f8f4ec" stroke="#000" stroke-opacity=".18"/><text x="148" y="225" fill="#c0392b" font-family="PingFang SC,Hiragino Sans GB,Noto Sans SC,sans-serif" font-size="22" font-weight="700">Q</text><text x="182" y="285" fill="#c0392b" font-family="serif" font-size="26">♦</text><rect x="212" y="198" width="66" height="94" rx="8" fill="#f8f4ec" stroke="#000" stroke-opacity=".18"/><text x="218" y="225" fill="#c0392b" font-family="PingFang SC,Hiragino Sans GB,Noto Sans SC,sans-serif" font-size="22" font-weight="700">J</text><text x="252" y="285" fill="#c0392b" font-family="serif" font-size="26">♦</text><rect x="282" y="198" width="66" height="94" rx="8" fill="#f8f4ec" stroke="#000" stroke-opacity=".18"/><text x="288" y="225" fill="#c0392b" font-family="PingFang SC,Hiragino Sans GB,Noto Sans SC,sans-serif" font-size="22" font-weight="700">10</text><text x="322" y="285" fill="#c0392b" font-family="serif" font-size="26">♦</text><rect x="352" y="198" width="66" height="94" rx="8" fill="#f8f4ec" stroke="#000" stroke-opacity=".18"/><text x="358" y="225" fill="#c0392b" font-family="PingFang SC,Hiragino Sans GB,Noto Sans SC,sans-serif" font-size="22" font-weight="700">9</text><text x="392" y="285" fill="#c0392b" font-family="serif" font-size="26">♦</text><rect x="422" y="198" width="66" height="94" rx="8" fill="#f8f4ec" stroke="#000" stroke-opacity=".18"/><text x="428" y="225" fill="#c0392b" font-family="PingFang SC,Hiragino Sans GB,Noto Sans SC,sans-serif" font-size="22" font-weight="700">8</text><text x="462" y="285" fill="#c0392b" font-family="serif" font-size="26">♦</text><rect x="492" y="198" width="66" height="94" rx="8" fill="#f8f4ec" stroke="#000" stroke-opacity=".18"/><text x="498" y="225" fill="#c0392b" font-family="PingFang SC,Hiragino Sans GB,Noto Sans SC,sans-serif" font-size="22" font-weight="700">7</text><text x="532" y="285" fill="#c0392b" font-family="serif" font-size="26">♦</text><rect x="562" y="198" width="66" height="94" rx="8" fill="#f8f4ec" stroke="#000" stroke-opacity=".18"/><text x="568" y="225" fill="#c0392b" font-family="PingFang SC,Hiragino Sans GB,Noto Sans SC,sans-serif" font-size="22" font-weight="700">6</text><text x="602" y="285" fill="#c0392b" font-family="serif" font-size="26">♦</text><rect x="632" y="198" width="66" height="94" rx="8" fill="#f8f4ec" stroke="#000" stroke-opacity=".18"/><text x="638" y="225" fill="#c0392b" font-family="PingFang SC,Hiragino Sans GB,Noto Sans SC,sans-serif" font-size="22" font-weight="700">5</text><text x="672" y="285" fill="#c0392b" font-family="serif" font-size="26">♦</text><rect x="702" y="198" width="66" height="94" rx="8" fill="#f8f4ec" stroke="#000" stroke-opacity=".18"/><text x="708" y="225" fill="#c0392b" font-family="PingFang SC,Hiragino Sans GB,Noto Sans SC,sans-serif" font-size="22" font-weight="700">4</text><text x="742" y="285" fill="#c0392b" font-family="serif" font-size="26">♦</text><rect x="772" y="198" width="66" height="94" rx="8" fill="#f8f4ec" stroke="#000" stroke-opacity=".18"/><text x="778" y="225" fill="#c0392b" font-family="PingFang SC,Hiragino Sans GB,Noto Sans SC,sans-serif" font-size="22" font-weight="700">3</text><text x="812" y="285" fill="#c0392b" font-family="serif" font-size="26">♦</text><rect x="842" y="198" width="66" height="94" rx="8" fill="#f8f4ec" stroke="#000" stroke-opacity=".18"/><text x="848" y="225" fill="#c0392b" font-family="PingFang SC,Hiragino Sans GB,Noto Sans SC,sans-serif" font-size="22" font-weight="700">2</text><text x="882" y="285" fill="#c0392b" font-family="serif" font-size="26">♦</text><rect x="912" y="198" width="66" height="94" rx="8" fill="#1e3a5f" stroke="#e2c078" stroke-width="2"/><path d="M 812 294 L 910 196" stroke="#5082be" stroke-opacity=".45" stroke-width="3"/><path d="M 824 294 L 922 196" stroke="#5082be" stroke-opacity=".45" stroke-width="3"/><path d="M 836 294 L 934 196" stroke="#5082be" stroke-opacity=".45" stroke-width="3"/><path d="M 848 294 L 946 196" stroke="#5082be" stroke-opacity=".45" stroke-width="3"/><path d="M 860 294 L 958 196" stroke="#5082be" stroke-opacity=".45" stroke-width="3"/><path d="M 872 294 L 970 196" stroke="#5082be" stroke-opacity=".45" stroke-width="3"/><path d="M 884 294 L 982 196" stroke="#5082be" stroke-opacity=".45" stroke-width="3"/><path d="M 896 294 L 994 196" stroke="#5082be" stroke-opacity=".45" stroke-width="3"/><path d="M 908 294 L 1006 196" stroke="#5082be" stroke-opacity=".45" stroke-width="3"/><path d="M 920 294 L 1018 196" stroke="#5082be" stroke-opacity=".45" stroke-width="3"/><path d="M 932 294 L 1030 196" stroke="#5082be" stroke-opacity=".45" stroke-width="3"/><path d="M 944 294 L 1042 196" stroke="#5082be" stroke-opacity=".45" stroke-width="3"/><path d="M 956 294 L 1054 196" stroke="#5082be" stroke-opacity=".45" stroke-width="3"/><path d="M 968 294 L 1066 196" stroke="#5082be" stroke-opacity=".45" stroke-width="3"/><path d="M 980 294 L 1078 196" stroke="#5082be" stroke-opacity=".45" stroke-width="3"/><path d="M 992 294 L 1090 196" stroke="#5082be" stroke-opacity=".45" stroke-width="3"/><path d="M 1004 294 L 1102 196" stroke="#5082be" stroke-opacity=".45" stroke-width="3"/><path d="M 1016 294 L 1114 196" stroke="#5082be" stroke-opacity=".45" stroke-width="3"/><path d="M 1028 294 L 1126 196" stroke="#5082be" stroke-opacity=".45" stroke-width="3"/><path d="M 1040 294 L 1138 196" stroke="#5082be" stroke-opacity=".45" stroke-width="3"/><path d="M 1052 294 L 1150 196" stroke="#5082be" stroke-opacity=".45" stroke-width="3"/><path d="M 1064 294 L 1162 196" stroke="#5082be" stroke-opacity=".45" stroke-width="3"/><path d="M 1076 294 L 1174 196" stroke="#5082be" stroke-opacity=".45" stroke-width="3"/><text x="945" y="257" text-anchor="middle" fill="#e2c078" fill-opacity=".35" font-family="serif" font-size="28">♠</text><rect x="2" y="296" width="66" height="94" rx="8" fill="#f8f4ec" stroke="#000" stroke-opacity=".18"/><text x="8" y="323" fill="#1a1a1a" font-family="PingFang SC,Hiragino Sans GB,Noto Sans SC,sans-serif" font-size="22" font-weight="700">A</text><text x="42" y="383" fill="#1a1a1a" font-family="serif" font-size="26">♣</text><rect x="72" y="296" width="66" height="94" rx="8" fill="#f8f4ec" stroke="#000" stroke-opacity=".18"/><text x="78" y="323" fill="#1a1a1a" font-family="PingFang SC,Hiragino Sans GB,Noto Sans SC,sans-serif" font-size="22" font-weight="700">K</text><text x="112" y="383" fill="#1a1a1a" font-family="serif" font-size="26">♣</text><rect x="142" y="296" width="66" height="94" rx="8" fill="#f8f4ec" stroke="#000" stroke-opacity=".18"/><text x="148" y="323" fill="#1a1a1a" font-family="PingFang SC,Hiragino Sans GB,Noto Sans SC,sans-serif" font-size="22" font-weight="700">Q</text><text x="182" y="383" fill="#1a1a1a" font-family="serif" font-size="26">♣</text><rect x="212" y="296" width="66" height="94" rx="8" fill="#f8f4ec" stroke="#000" stroke-opacity=".18"/><text x="218" y="323" fill="#1a1a1a" font-family="PingFang SC,Hiragino Sans GB,Noto Sans SC,sans-serif" font-size="22" font-weight="700">J</text><text x="252" y="383" fill="#1a1a1a" font-family="serif" font-size="26">♣</text><rect x="282" y="296" width="66" height="94" rx="8" fill="#f8f4ec" stroke="#000" stroke-opacity=".18"/><text x="288" y="323" fill="#1a1a1a" font-family="PingFang SC,Hiragino Sans GB,Noto Sans SC,sans-serif" font-size="22" font-weight="700">10</text><text x="322" y="383" fill="#1a1a1a" font-family="serif" font-size="26">♣</text><rect x="352" y="296" width="66" height="94" rx="8" fill="#f8f4ec" stroke="#000" stroke-opacity=".18"/><text x="358" y="323" fill="#1a1a1a" font-family="PingFang SC,Hiragino Sans GB,Noto Sans SC,sans-serif" font-size="22" font-weight="700">9</text><text x="392" y="383" fill="#1a1a1a" font-family="serif" font-size="26">♣</text><rect x="422" y="296" width="66" height="94" rx="8" fill="#f8f4ec" stroke="#000" stroke-opacity=".18"/><text x="428" y="323" fill="#1a1a1a" font-family="PingFang SC,Hiragino Sans GB,Noto Sans SC,sans-serif" font-size="22" font-weight="700">8</text><text x="462" y="383" fill="#1a1a1a" font-family="serif" font-size="26">♣</text><rect x="492" y="296" width="66" height="94" rx="8" fill="#f8f4ec" stroke="#000" stroke-opacity=".18"/><text x="498" y="323" fill="#1a1a1a" font-family="PingFang SC,Hiragino Sans GB,Noto Sans SC,sans-serif" font-size="22" font-weight="700">7</text><text x="532" y="383" fill="#1a1a1a" font-family="serif" font-size="26">♣</text><rect x="562" y="296" width="66" height="94" rx="8" fill="#f8f4ec" stroke="#000" stroke-opacity=".18"/><text x="568" y="323" fill="#1a1a1a" font-family="PingFang SC,Hiragino Sans GB,Noto Sans SC,sans-serif" font-size="22" font-weight="700">6</text><text x="602" y="383" fill="#1a1a1a" font-family="serif" font-size="26">♣</text><rect x="632" y="296" width="66" height="94" rx="8" fill="#f8f4ec" stroke="#000" stroke-opacity=".18"/><text x="638" y="323" fill="#1a1a1a" font-family="PingFang SC,Hiragino Sans GB,Noto Sans SC,sans-serif" font-size="22" font-weight="700">5</text><text x="672" y="383" fill="#1a1a1a" font-family="serif" font-size="26">♣</text><rect x="702" y="296" width="66" height="94" rx="8" fill="#f8f4ec" stroke="#000" stroke-opacity=".18"/><text x="708" y="323" fill="#1a1a1a" font-family="PingFang SC,Hiragino Sans GB,Noto Sans SC,sans-serif" font-size="22" font-weight="700">4</text><text x="742" y="383" fill="#1a1a1a" font-family="serif" font-size="26">♣</text><rect x="772" y="296" width="66" height="94" rx="8" fill="#f8f4ec" stroke="#000" stroke-opacity=".18"/><text x="778" y="323" fill="#1a1a1a" font-family="PingFang SC,Hiragino Sans GB,Noto Sans SC,sans-serif" font-size="22" font-weight="700">3</text><text x="812" y="383" fill="#1a1a1a" font-family="serif" font-size="26">♣</text><rect x="842" y="296" width="66" height="94" rx="8" fill="#f8f4ec" stroke="#000" stroke-opacity=".18"/><text x="848" y="323" fill="#1a1a1a" font-family="PingFang SC,Hiragino Sans GB,Noto Sans SC,sans-serif" font-size="22" font-weight="700">2</text><text x="882" y="383" fill="#1a1a1a" font-family="serif" font-size="26">♣</text><rect x="912" y="296" width="66" height="94" rx="8" fill="#1e3a5f" stroke="#e2c078" stroke-width="2"/><path d="M 812 392 L 910 294" stroke="#5082be" stroke-opacity=".45" stroke-width="3"/><path d="M 824 392 L 922 294" stroke="#5082be" stroke-opacity=".45" stroke-width="3"/><path d="M 836 392 L 934 294" stroke="#5082be" stroke-opacity=".45" stroke-width="3"/><path d="M 848 392 L 946 294" stroke="#5082be" stroke-opacity=".45" stroke-width="3"/><path d="M 860 392 L 958 294" stroke="#5082be" stroke-opacity=".45" stroke-width="3"/><path d="M 872 392 L 970 294" stroke="#5082be" stroke-opacity=".45" stroke-width="3"/><path d="M 884 392 L 982 294" stroke="#5082be" stroke-opacity=".45" stroke-width="3"/><path d="M 896 392 L 994 294" stroke="#5082be" stroke-opacity=".45" stroke-width="3"/><path d="M 908 392 L 1006 294" stroke="#5082be" stroke-opacity=".45" stroke-width="3"/><path d="M 920 392 L 1018 294" stroke="#5082be" stroke-opacity=".45" stroke-width="3"/><path d="M 932 392 L 1030 294" stroke="#5082be" stroke-opacity=".45" stroke-width="3"/><path d="M 944 392 L 1042 294" stroke="#5082be" stroke-opacity=".45" stroke-width="3"/><path d="M 956 392 L 1054 294" stroke="#5082be" stroke-opacity=".45" stroke-width="3"/><path d="M 968 392 L 1066 294" stroke="#5082be" stroke-opacity=".45" stroke-width="3"/><path d="M 980 392 L 1078 294" stroke="#5082be" stroke-opacity=".45" stroke-width="3"/><path d="M 992 392 L 1090 294" stroke="#5082be" stroke-opacity=".45" stroke-width="3"/><path d="M 1004 392 L 1102 294" stroke="#5082be" stroke-opacity=".45" stroke-width="3"/><path d="M 1016 392 L 1114 294" stroke="#5082be" stroke-opacity=".45" stroke-width="3"/><path d="M 1028 392 L 1126 294" stroke="#5082be" stroke-opacity=".45" stroke-width="3"/><path d="M 1040 392 L 1138 294" stroke="#5082be" stroke-opacity=".45" stroke-width="3"/><path d="M 1052 392 L 1150 294" stroke="#5082be" stroke-opacity=".45" stroke-width="3"/><path d="M 1064 392 L 1162 294" stroke="#5082be" stroke-opacity=".45" stroke-width="3"/><path d="M 1076 392 L 1174 294" stroke="#5082be" stroke-opacity=".45" stroke-width="3"/><text x="945" y="355" text-anchor="middle" fill="#e2c078" fill-opacity=".35" font-family="serif" font-size="28">♠</text></svg>